<svg xmlns="http://www.w3.org/2000/svg" viewBox="0 0 97.595047 53.966" width="97.595047" height="53.966">
  <path d="M32.089 14.977c0-.005.001-.009.001-.014-.001-.036-.007-.07-.015-.104v-.001c-.011-.042-.028-.08-.048-.117v-.001l-.023-.039c-.001-.001-.001-.002-.002-.003l-4.321-7.464-.116-3.828c.006-.173.004-1.09-.614-1.747C26.54 1.222 25.965 1 25.244 1h-.004c-2.278.003-18.027.426-18.551.441-.161-.006-1.214.006-1.924.69-.424.408-.639.958-.639 1.634v4.124L1.06 13.47c-.001.002-.002.005-.003.007-.005.01-.008.02-.013.031-.01.023-.019.046-.026.069-.003.011-.005.023-.007.034-.005.024-.008.048-.009.072 0 .006-.002.012-.002.019v32.052c0 .126.049.246.137.336l6.571 6.731c.004.004.009.007.013.011.003.003.006.007.009.01.009.008.02.015.03.022.011.009.022.018.034.025.014.009.03.017.045.024.012.006.024.013.036.018.018.007.036.012.055.017.011.003.021.007.032.009.03.006.06.009.09.009.016 0 .033-.001.05-.003l23.158-2.404c.243-.025.428-.228.431-.473l.4-35.097c-.001-.006-.002-.009-.002-.012zM5.086 3.762c0-.409.112-.715.341-.938.456-.443 1.238-.425 1.243-.425.011 0 .021.001.031 0 .162-.004 16.246-.438 18.538-.441h.003c.443 0 .78.118 1.002.352.386.406.358 1.057.358 1.061-.001.015-.001.03-.001.044l.106 3.485-3.007.085c-.51-1.183-2.065-2.222-4.088-2.599-.492-.091-.985-.138-1.465-.138-1.758 0-3.138.625-3.654 1.601-.01.014-.017.03-.025.045-.006.011-.013.022-.018.034l-.006.015c-.065.14-.113.287-.142.44-.023.124-.029.249-.027.373l-.098.498-9.09.258v-3.75zm14.918 5.573c-.421 0-.855-.041-1.289-.122-1.666-.31-3.378-1.327-3.475-2.379l.109-.556c.347-.64 1.431-1.067 2.798-1.067.421 0 .855.041 1.289.122 1.81.337 3.68 1.509 3.467 2.652-.147.794-1.339 1.35-2.899 1.35zm2.577.388l-.488 2.625c-4.027 1.915-6.931-1.062-7.58-1.818l.434-2.204c.737.848 2.022 1.541 3.593 1.833.492.092.985.138 1.465.138 1.015-.001 1.905-.21 2.576-.574zM4.557 9.095l2.62 5.972-4.997-1.645zM7.57 51.301l-5.609-5.746V14.363L7.57 16.21zM5.333 8.469l8.654-.245-.461 2.342c-.027.135.006.275.089.384.029.038 2.324 2.986 5.86 2.986.998 0 2.095-.235 3.267-.836.132-.068.226-.194.253-.34l.855-4.595c0-.001.001-.002.001-.003.013-.072.018-.145.022-.217l3.058-.087 3.863 6.673-22.433.839zm25.4 41.175L8.532 51.949V16.325l22.591-.845z" fill="#fff"/>
  <path d="M43.526696 28.558611c0-.784-.16-1.504-.448-2.176-.288-.672-.688-1.248-1.184-1.728-.512-.48-1.104-.848-1.776-1.12-.688-.272-1.424-.416-2.192-.416h-2.848v10.88h2.848c.768 0 1.504-.128 2.192-.4.672-.272 1.264-.656 1.776-1.136.496-.48.896-1.04 1.184-1.712.288-.672.448-1.392.448-2.192zm-1.088 0c0 1.248-.448 2.288-1.312 3.104-.864.816-1.92 1.216-3.168 1.216h-1.76v-8.64h1.76c1.248 0 2.304.416 3.168 1.216.864.832 1.312 1.872 1.312 3.104zm8.615 1.92c0 .688-.24 1.296-.72 1.792-.48.512-1.072.768-1.76.768-.704 0-1.296-.256-1.776-.768-.48-.496-.704-1.104-.704-1.792 0-.672.224-1.28.704-1.792s1.072-.768 1.776-.768c.688 0 1.28.256 1.76.768s.72 1.12.72 1.792zm1.12 3.52v-7.04h-1.12v1.216c-.064-.096-.144-.176-.208-.256-.672-.736-1.488-1.12-2.448-1.12-.976 0-1.792.384-2.464 1.12-.64.736-.96 1.584-.96 2.56 0 .992.32 1.84.96 2.56.672.752 1.488 1.12 2.464 1.12.96 0 1.776-.368 2.448-1.12.064-.064.144-.144.208-.24v1.2zm3.541-9.472c-.144-.128-.32-.208-.512-.208s-.368.08-.496.208c-.144.144-.208.32-.208.512s.064.368.208.496c.128.144.304.208.496.208s.368-.064.512-.208c.128-.128.208-.304.208-.496s-.08-.368-.208-.512zm.064 9.472v-7.04h-1.12v7.04zm6.07225-5.584v-1.456c-.224-.096-.464-.144-.704-.144-.8 0-1.376.448-1.744 1.312l-.048.288v-1.456h-1.12v7.04h1.12v-3.52c0-.576.128-1.088.4-1.552.128-.24.304-.448.512-.608.208-.16.464-.256.752-.256s.56.128.832.352zm2.24875 9.584l4.864-11.04h-1.248l-2.016 4.72-2.256-4.72h-1.28l2.944 5.888-2.368 5.152zm12.4925-8.512c-.224-.784-.656-1.424-1.28-1.92-.656-.496-1.376-.752-2.176-.752-1.008 0-1.872.368-2.56 1.088-.704.72-1.04 1.584-1.04 2.576 0 1.008.336 1.856 1.04 2.592.32.336.688.608 1.136.8.432.192.88.288 1.328.288.448 0 .848-.048 1.2-.176 1.12-.4 1.888-1.152 2.288-2.288h-1.264c-.224.4-.512.72-.896.944-.384.24-.784.352-1.232.352-.688 0-1.264-.24-1.744-.736s-.704-1.088-.704-1.776c0-.656.224-1.248.704-1.744.224-.224.48-.416.784-.544.288-.128.656-.208 1.072-.208.416 0 .816.144 1.232.416.4.288.704.64.896 1.088zm7.36775.992c0 .688-.24 1.296-.72 1.792-.48.512-1.072.768-1.76.768-.704 0-1.296-.256-1.776-.768-.48-.496-.704-1.104-.704-1.792 0-.672.224-1.28.704-1.792s1.072-.768 1.776-.768c.688 0 1.28.256 1.76.768s.72 1.12.72 1.792zm1.12 3.52v-7.04h-1.12v1.216c-.064-.096-.144-.176-.208-.256-.672-.736-1.488-1.12-2.448-1.12-.976 0-1.792.384-2.464 1.12-.64.736-.96 1.584-.96 2.56 0 .992.32 1.84.96 2.56.672.752 1.488 1.12 2.464 1.12.96 0 1.776-.368 2.448-1.12.064-.064.144-.144.208-.24v1.2zm6.021-5.584v-1.456c-.224-.096-.464-.144-.704-.144-.8 0-1.376.448-1.744 1.312l-.048.288v-1.456h-1.12v7.04h1.12v-3.52c0-.576.128-1.088.4-1.552.128-.24.304-.448.512-.608.208-.16.464-.256.752-.256s.56.128.832.352zm.47275-.416h1.76v6h1.12v-6h1.744v-1.04h-1.744v-2.736h-1.12v2.736h-1.76z" style="line-height:1.25;-inkscape-font-specification:'Glacial Indifference'" font-size="16" font-family="Glacial Indifference" letter-spacing="0" word-spacing="0" fill="#fff"/>
</svg>
