<?xml version="1.0" encoding="UTF-8" standalone="no"?>
<svg
   xmlns:dc="http://purl.org/dc/elements/1.1/"
   xmlns:cc="http://creativecommons.org/ns#"
   xmlns:rdf="http://www.w3.org/1999/02/22-rdf-syntax-ns#"
   xmlns:svg="http://www.w3.org/2000/svg"
   xmlns="http://www.w3.org/2000/svg"
   xmlns:sodipodi="http://sodipodi.sourceforge.net/DTD/sodipodi-0.dtd"
   xmlns:inkscape="http://www.inkscape.org/namespaces/inkscape"
   x="0px"
   y="0px"
   viewBox="0 0 97.595047 53.966"
   version="1.1"
   id="svg4487"
   sodipodi:docname="dairycart-white-with-text.svg"
   width="97.595047"
   height="53.966"
   inkscape:version="0.92.1 r15371">
  <metadata
     id="metadata4493">
    <rdf:RDF>
      <cc:Work
         rdf:about="">
        <dc:format>image/svg+xml</dc:format>
        <dc:type
           rdf:resource="http://purl.org/dc/dcmitype/StillImage" />
        <dc:title></dc:title>
      </cc:Work>
    </rdf:RDF>
  </metadata>
  <defs
     id="defs4491" />
  <sodipodi:namedview
     pagecolor="#ffffff"
     bordercolor="#666666"
     borderopacity="1"
     objecttolerance="10"
     gridtolerance="10"
     guidetolerance="10"
     inkscape:pageopacity="0"
     inkscape:pageshadow="2"
     inkscape:window-width="2560"
     inkscape:window-height="1377"
     id="namedview4489"
     showgrid="false"
     inkscape:pagecheckerboard="true"
     fit-margin-top="1"
     fit-margin-left="1"
     fit-margin-right="1"
     fit-margin-bottom="1"
     inkscape:zoom="7.55"
     inkscape:cx="116.02705"
     inkscape:cy="8.4572642"
     inkscape:window-x="-8"
     inkscape:window-y="-8"
     inkscape:window-maximized="1"
     inkscape:current-layer="svg4487" />
  <path
     d="m 32.089,14.977 c 0,-0.005 0.001,-0.009 0.001,-0.014 -0.001,-0.036 -0.007,-0.07 -0.015,-0.104 0,0 0,-10e-4 0,-10e-4 -0.011,-0.042 -0.028,-0.08 -0.048,-0.117 0,0 0,-10e-4 0,-10e-4 L 32.004,14.701 C 32.003,14.7 32.003,14.699 32.002,14.698 L 27.681,7.234 27.565,3.406 C 27.571,3.233 27.569,2.316 26.951,1.659 26.54,1.222 25.965,1 25.244,1 25.243,1 25.241,1 25.24,1 22.962,1.003 7.213,1.426 6.689,1.441 6.528,1.435 5.475,1.447 4.765,2.131 4.341,2.539 4.126,3.089 4.126,3.765 V 7.889 L 1.06,13.47 c -0.001,0.002 -0.002,0.005 -0.003,0.007 -0.005,0.01 -0.008,0.02 -0.013,0.031 -0.01,0.023 -0.019,0.046 -0.026,0.069 C 1.015,13.588 1.013,13.6 1.011,13.611 1.006,13.635 1.003,13.659 1.002,13.683 1.002,13.689 1,13.695 1,13.702 V 45.754 C 1,45.88 1.049,46 1.137,46.09 l 6.571,6.731 c 0.004,0.004 0.009,0.007 0.013,0.011 0.003,0.003 0.006,0.007 0.009,0.01 0.009,0.008 0.02,0.015 0.03,0.022 0.011,0.009 0.022,0.018 0.034,0.025 0.014,0.009 0.03,0.017 0.045,0.024 0.012,0.006 0.024,0.013 0.036,0.018 0.018,0.007 0.036,0.012 0.055,0.017 0.011,0.003 0.021,0.007 0.032,0.009 0.03,0.006 0.06,0.009 0.09,0.009 0.016,0 0.033,-10e-4 0.05,-0.003 L 31.26,50.559 c 0.243,-0.025 0.428,-0.228 0.431,-0.473 l 0.4,-35.097 C 32.09,14.983 32.089,14.98 32.089,14.977 Z M 5.086,3.762 C 5.086,3.353 5.198,3.047 5.427,2.824 5.883,2.381 6.665,2.399 6.67,2.399 c 0.011,0 0.021,10e-4 0.031,0 0.162,-0.004 16.246,-0.438 18.538,-0.441 10e-4,0 0.002,0 0.003,0 0.443,0 0.78,0.118 1.002,0.352 0.386,0.406 0.358,1.057 0.358,1.061 -0.001,0.015 -0.001,0.03 -0.001,0.044 L 26.707,6.9 23.7,6.985 C 23.19,5.802 21.635,4.763 19.612,4.386 19.12,4.295 18.627,4.248 18.147,4.248 c -1.758,0 -3.138,0.625 -3.654,1.601 -0.01,0.014 -0.017,0.03 -0.025,0.045 -0.006,0.011 -0.013,0.022 -0.018,0.034 -0.002,0.005 -0.004,0.01 -0.006,0.015 -0.065,0.14 -0.113,0.287 -0.142,0.44 -0.023,0.124 -0.029,0.249 -0.027,0.373 L 14.177,7.254 5.087,7.512 V 3.762 Z M 20.004,9.335 C 19.583,9.335 19.149,9.294 18.715,9.213 17.049,8.903 15.337,7.886 15.24,6.834 l 0.109,-0.556 c 0.347,-0.64 1.431,-1.067 2.798,-1.067 0.421,0 0.855,0.041 1.289,0.122 1.81,0.337 3.68,1.509 3.467,2.652 -0.147,0.794 -1.339,1.35 -2.899,1.35 z m 2.577,0.388 -0.488,2.625 c -4.027,1.915 -6.931,-1.062 -7.58,-1.818 l 0.434,-2.204 c 0.737,0.848 2.022,1.541 3.593,1.833 0.492,0.092 0.985,0.138 1.465,0.138 1.015,-0.001 1.905,-0.21 2.576,-0.574 z M 4.557,9.095 7.177,15.067 2.18,13.422 Z M 7.57,51.301 1.961,45.555 V 14.363 L 7.57,16.21 Z M 5.333,8.469 13.987,8.224 13.526,10.566 c -0.027,0.135 0.006,0.275 0.089,0.384 0.029,0.038 2.324,2.986 5.86,2.986 0.998,0 2.095,-0.235 3.267,-0.836 0.132,-0.068 0.226,-0.194 0.253,-0.34 L 23.85,8.165 c 0,-10e-4 10e-4,-0.002 10e-4,-0.003 0.013,-0.072 0.018,-0.145 0.022,-0.217 l 3.058,-0.087 3.863,6.673 -22.433,0.839 z m 25.4,41.175 -22.201,2.305 V 16.325 L 31.123,15.48 Z"
     style="fill:#ffffff;stroke-width:0.75590551;stroke-miterlimit:4;stroke-dasharray:none"
     id="path4485"
     inkscape:connector-curvature="0" />
  <g
     aria-label="Dairycart"
     style="font-style:normal;font-variant:normal;font-weight:normal;font-stretch:normal;font-size:16px;line-height:1.25;font-family:'Glacial Indifference';-inkscape-font-specification:'Glacial Indifference';letter-spacing:0px;word-spacing:0px;fill:#ffffff;fill-opacity:1;stroke:none"
     id="text4524">
    <path
       d="m 43.526696,28.558611 c 0,-0.784 -0.16,-1.504 -0.448,-2.176 -0.288,-0.672 -0.688,-1.248 -1.184,-1.728 -0.512,-0.48 -1.104,-0.848 -1.776,-1.12 -0.688,-0.272 -1.424,-0.416 -2.192,-0.416 h -2.848 v 10.88 h 2.848 c 0.768,0 1.504,-0.128 2.192,-0.4 0.672,-0.272 1.264,-0.656 1.776,-1.136 0.496,-0.48 0.896,-1.04 1.184,-1.712 0.288,-0.672 0.448,-1.392 0.448,-2.192 z m -1.088,0 c 0,1.248 -0.448,2.288 -1.312,3.104 -0.864,0.816 -1.92,1.216 -3.168,1.216 h -1.76 v -8.64 h 1.76 c 1.248,0 2.304,0.416 3.168,1.216 0.864,0.832 1.312,1.872 1.312,3.104 z"
       style=""
       id="path4526" />
    <path
       d="m 51.053696,30.478611 c 0,0.688 -0.24,1.296 -0.72,1.792 -0.48,0.512 -1.072,0.768 -1.76,0.768 -0.704,0 -1.296,-0.256 -1.776,-0.768 -0.48,-0.496 -0.704,-1.104 -0.704,-1.792 0,-0.672 0.224,-1.28 0.704,-1.792 0.48,-0.512 1.072,-0.768 1.776,-0.768 0.688,0 1.28,0.256 1.76,0.768 0.48,0.512 0.72,1.12 0.72,1.792 z m 1.12,3.52 v -7.04 h -1.12 v 1.216 c -0.064,-0.096 -0.144,-0.176 -0.208,-0.256 -0.672,-0.736 -1.488,-1.12 -2.448,-1.12 -0.976,0 -1.792,0.384 -2.464,1.12 -0.64,0.736 -0.96,1.584 -0.96,2.56 0,0.992 0.32,1.84 0.96,2.56 0.672,0.752 1.488,1.12 2.464,1.12 0.96,0 1.776,-0.368 2.448,-1.12 0.064,-0.064 0.144,-0.144 0.208,-0.24 v 1.2 z"
       style=""
       id="path4528" />
    <path
       d="m 55.714696,24.526611 c -0.144,-0.128 -0.32,-0.208 -0.512,-0.208 -0.192,0 -0.368,0.08 -0.496,0.208 -0.144,0.144 -0.208,0.32 -0.208,0.512 0,0.192 0.064,0.368 0.208,0.496 0.128,0.144 0.304,0.208 0.496,0.208 0.192,0 0.368,-0.064 0.512,-0.208 0.128,-0.128 0.208,-0.304 0.208,-0.496 0,-0.192 -0.08,-0.368 -0.208,-0.512 z m 0.064,9.472 v -7.04 h -1.12 v 7.04 z"
       style=""
       id="path4530" />
    <path
       d="m 61.850946,28.414611 v -1.456 c -0.224,-0.096 -0.464,-0.144 -0.704,-0.144 -0.8,0 -1.376,0.448 -1.744,1.312 l -0.048,0.288 v -1.456 h -1.12 v 7.04 h 1.12 v -3.52 c 0,-0.576 0.128,-1.088 0.4,-1.552 0.128,-0.24 0.304,-0.448 0.512,-0.608 0.208,-0.16 0.464,-0.256 0.752,-0.256 0.288,0 0.56,0.128 0.832,0.352 z"
       style=""
       id="path4532" />
    <path
       d="m 64.099696,37.998611 4.864,-11.04 h -1.248 l -2.016,4.72 -2.256,-4.72 h -1.28 l 2.944,5.888 -2.368,5.152 z"
       style=""
       id="path4534" />
    <path
       d="m 76.592196,29.486611 c -0.224,-0.784 -0.656,-1.424 -1.28,-1.92 -0.656,-0.496 -1.376,-0.752 -2.176,-0.752 -1.008,0 -1.872,0.368 -2.56,1.088 -0.704,0.72 -1.04,1.584 -1.04,2.576 0,1.008 0.336,1.856 1.04,2.592 0.32,0.336 0.688,0.608 1.136,0.8 0.432,0.192 0.88,0.288 1.328,0.288 0.448,0 0.848,-0.048 1.2,-0.176 1.12,-0.4 1.888,-1.152 2.288,-2.288 h -1.264 c -0.224,0.4 -0.512,0.72 -0.896,0.944 -0.384,0.24 -0.784,0.352 -1.232,0.352 -0.688,0 -1.264,-0.24 -1.744,-0.736 -0.48,-0.496 -0.704,-1.088 -0.704,-1.776 0,-0.656 0.224,-1.248 0.704,-1.744 0.224,-0.224 0.48,-0.416 0.784,-0.544 0.288,-0.128 0.656,-0.208 1.072,-0.208 0.416,0 0.816,0.144 1.232,0.416 0.4,0.288 0.704,0.64 0.896,1.088 z"
       style=""
       id="path4536" />
    <path
       d="m 83.959946,30.478611 c 0,0.688 -0.24,1.296 -0.72,1.792 -0.48,0.512 -1.072,0.768 -1.76,0.768 -0.704,0 -1.296,-0.256 -1.776,-0.768 -0.48,-0.496 -0.704,-1.104 -0.704,-1.792 0,-0.672 0.224,-1.28 0.704,-1.792 0.48,-0.512 1.072,-0.768 1.776,-0.768 0.688,0 1.28,0.256 1.76,0.768 0.48,0.512 0.72,1.12 0.72,1.792 z m 1.12,3.52 v -7.04 h -1.12 v 1.216 c -0.064,-0.096 -0.144,-0.176 -0.208,-0.256 -0.672,-0.736 -1.488,-1.12 -2.448,-1.12 -0.976,0 -1.792,0.384 -2.464,1.12 -0.64,0.736 -0.96,1.584 -0.96,2.56 0,0.992 0.32,1.84 0.96,2.56 0.672,0.752 1.488,1.12 2.464,1.12 0.96,0 1.776,-0.368 2.448,-1.12 0.064,-0.064 0.144,-0.144 0.208,-0.24 v 1.2 z"
       style=""
       id="path4538" />
    <path
       d="m 91.100946,28.414611 v -1.456 c -0.224,-0.096 -0.464,-0.144 -0.704,-0.144 -0.8,0 -1.376,0.448 -1.744,1.312 l -0.048,0.288 v -1.456 h -1.12 v 7.04 h 1.12 v -3.52 c 0,-0.576 0.128,-1.088 0.4,-1.552 0.128,-0.24 0.304,-0.448 0.512,-0.608 0.208,-0.16 0.464,-0.256 0.752,-0.256 0.288,0 0.56,0.128 0.832,0.352 z"
       style=""
       id="path4540" />
    <path
       d="m 91.573696,27.998611 h 1.76 v 6 h 1.12 v -6 h 1.744 v -1.04 h -1.744 v -2.736 h -1.12 v 2.736 h -1.76 z"
       style=""
       id="path4542" />
  </g>
</svg>
